<?xml version="1.0" standalone="no"?>
<!DOCTYPE svg PUBLIC "-//W3C//DTD SVG 20010904//EN"
 "http://www.w3.org/TR/2001/REC-SVG-20010904/DTD/svg10.dtd">
<svg version="1.0" xmlns="http://www.w3.org/2000/svg"
 width="900.000000pt" height="600.000000pt" viewBox="0 0 900.000000 600.000000"
 preserveAspectRatio="xMidYMid meet">

<g transform="translate(0.000000,600.000000) scale(0.100000,-0.100000)"
fill="#000000" stroke="none">
<path d="M4295 4150 c-378 -69 -671 -290 -845 -639 -106 -213 -144 -467 -105
-707 24 -149 95 -329 171 -437 19 -26 34 -50 34 -53 0 -10 48 -65 128 -147
283 -290 728 -408 1132 -302 141 37 389 162 374 187 -4 6 -3 8 3 5 22 -14 184
140 263 251 153 215 223 431 223 687 0 295 -95 551 -291 782 -55 65 -198 182
-283 231 -239 140 -533 191 -804 142z m425 -136 c207 -47 379 -142 527 -291
142 -144 234 -317 277 -523 14 -71 14 -76 -5 -106 -49 -80 -167 -149 -278
-162 -105 -12 -197 3 -381 63 -91 29 -200 59 -243 66 -230 36 -493 -45 -659
-204 -42 -40 -96 -101 -119 -136 -51 -76 -113 -224 -130 -310 -6 -34 -15 -61
-18 -61 -18 0 -123 181 -165 284 -29 69 -56 200 -62 302 -28 433 225 843 626
1015 91 39 198 68 295 80 80 10 255 1 335 -17z m-35 -1085 c33 -10 112 -36
177 -58 150 -52 268 -69 382 -53 93 12 197 54 259 103 l37 30 0 -40 c0 -22 -7
-73 -15 -113 -47 -225 -147 -403 -313 -559 -134 -126 -260 -197 -442 -249
-107 -31 -356 -39 -466 -16 -158 34 -260 77 -392 165 l-92 62 0 79 c0 109 14
170 65 275 82 171 227 297 425 367 110 40 256 43 375 7z"/>
<path d="M4865 3688 c-3 -7 -6 -53 -7 -102 l-3 -88 -80 0 c-112 0 -117 -3
-113 -91 l3 -72 95 -5 95 -5 3 -89 c2 -50 8 -96 14 -103 15 -18 108 -17 136 3
20 14 22 23 22 105 l0 89 88 0 c55 0 92 4 100 12 7 7 12 38 12 69 0 82 -12 91
-116 87 l-84 -3 0 90 c0 58 -4 95 -12 103 -17 17 -147 16 -153 0z"/>
<path d="M4132 3628 c2 -25 9 -34 28 -38 23 -5 26 -12 32 -75 4 -44 12 -73 22
-81 14 -9 14 -13 0 -33 -9 -12 -18 -47 -21 -79 -6 -64 -16 -82 -45 -82 -15 0
-19 -6 -16 -27 2 -24 8 -29 37 -31 52 -5 81 28 81 94 0 69 13 102 42 106 18 2
24 10 26 36 3 26 0 32 -17 32 -37 0 -51 27 -51 95 0 55 -3 68 -25 90 -18 17
-37 25 -61 25 -34 0 -35 -1 -32 -32z"/>
<path d="M3862 3627 c-18 -19 -22 -35 -22 -89 0 -68 -8 -83 -45 -90 -12 -2
-19 -11 -19 -21 1 -9 2 -24 3 -32 0 -8 9 -15 19 -15 32 0 42 -22 42 -92 0 -81
20 -108 82 -108 33 0 38 3 38 24 0 17 -8 27 -29 34 -27 10 -29 14 -33 77 -3
50 -9 71 -22 81 -18 12 -17 14 3 40 15 19 21 41 21 78 0 55 12 76 42 76 13 0
18 8 18 30 0 28 -2 30 -38 30 -27 0 -45 -7 -60 -23z"/>
<path d="M4670 2769 c-191 -28 -354 -136 -396 -262 -18 -55 -16 -227 3 -262 9
-16 16 -8 48 56 21 41 45 87 52 102 20 39 143 161 181 181 66 34 82 37 82 17
0 -12 -26 -40 -65 -71 -69 -55 -142 -144 -182 -224 -39 -77 -81 -203 -73 -217
13 -20 37 -2 50 38 18 54 25 60 81 72 208 45 323 210 345 495 l7 86 -39 -1
c-21 -1 -64 -5 -94 -10z"/>
</g>
</svg>
